<svg xmlns="http://www.w3.org/2000/svg" viewBox="0 12.199999809265137 89.44999694824219 40.29999923706055" data-asc="1.036" width="89.44999694824219" height="40.29999923706055"><defs/><g fill="#ffffff"><g transform="translate(0, 0)"><path d="M55.15 21.10L52.65 21.10L52.65 43.60L55.15 43.60L55.15 51.80L36.25 51.80L36.25 43.60L38.65 43.60L38.65 26.10L30.15 51.80L22.75 51.80L14 26.35L14 43.60L16.40 43.60L16.40 51.80L0 51.80L0 43.60L2.50 43.60L2.50 21.10L0 21.10L0 12.90L22.90 12.90L28.10 28.50L33.10 12.90L55.15 12.90L55.15 21.10ZM72.65 52.50Q67.85 52.50 63.58 51.68Q59.30 50.85 57.00 49.80L57.00 39.90L68 39.90Q68 41.45 68.70 42.15Q69.40 42.85 71.25 42.85Q72.80 42.85 73.48 42.38Q74.15 41.90 74.15 40.95Q74.15 40.15 73.50 39.58Q72.85 39 71.25 38.40L66.95 36.90Q61.40 34.80 58.98 31.95Q56.55 29.10 56.55 24.25Q56.55 18.35 60.43 15.28Q64.30 12.20 73.35 12.20Q77.70 12.20 81.53 13.08Q85.35 13.95 87.70 15.40L87.70 24.35L77.70 24.35Q77.70 21.85 74.60 21.85Q73.10 21.85 72.48 22.23Q71.85 22.60 71.85 23.55Q71.85 24.40 72.58 24.90Q73.30 25.40 74.95 25.95L79.30 27.45Q84.60 29.25 87.03 32.13Q89.45 35 89.45 39.65Q89.45 46 85.18 49.25Q80.90 52.50 72.65 52.50Z"/></g></g></svg>